<?xml version="1.0" standalone="no"?>
<!DOCTYPE svg PUBLIC "-//W3C//DTD SVG 1.1//EN" "http://www.w3.org/Graphics/SVG/1.1/DTD/svg11.dtd">
<svg xmlns="http://www.w3.org/2000/svg" width="534" height="230" viewBox="0 0 534 230" fill="none">
<path d="M296.93 86V48.06L280.55 77.25H276.7L260.25 48.06V86H253.95V36.3H260.6L278.59 68.57L296.65 36.3H303.23V86H296.93ZM330.252 36.3H335.572L355.872 86H349.152L343.272 71.44H322.412L316.602 86H309.882L330.252 36.3ZM341.872 66.54L332.912 43.58L323.672 66.54H341.872ZM363.905 36.3L378.885 56.88L393.865 36.3H400.935L382.385 61.5L400.375 86H393.305L378.885 66.12L364.465 86H357.325L375.315 61.5L356.765 36.3H363.905ZM407.075 86V36.3H413.375V86H407.075ZM445.419 86.35C441.919 86.35 438.745 85.65 435.899 84.25C433.052 82.85 430.579 80.96 428.479 78.58C426.425 76.1533 424.839 73.4467 423.719 70.46C422.599 67.4267 422.039 64.3233 422.039 61.15C422.039 57.8367 422.622 54.6867 423.789 51.7C425.002 48.6667 426.659 45.9833 428.759 43.65C430.905 41.27 433.402 39.4033 436.249 38.05C439.095 36.65 442.199 35.95 445.559 35.95C449.059 35.95 452.232 36.6733 455.079 38.12C457.925 39.5667 460.375 41.5033 462.429 43.93C464.482 46.3567 466.069 49.0633 467.189 52.05C468.309 55.0367 468.869 58.0933 468.869 61.22C468.869 64.5333 468.285 67.7067 467.119 70.74C465.952 73.7267 464.295 76.41 462.149 78.79C460.049 81.1233 457.575 82.9667 454.729 84.32C451.882 85.6733 448.779 86.35 445.419 86.35ZM428.409 61.15C428.409 63.67 428.805 66.12 429.599 68.5C430.439 70.8333 431.605 72.91 433.099 74.73C434.592 76.55 436.389 77.9967 438.489 79.07C440.589 80.1433 442.922 80.68 445.489 80.68C448.149 80.68 450.529 80.12 452.629 79C454.729 77.88 456.502 76.3867 457.949 74.52C459.442 72.6533 460.562 70.5533 461.309 68.22C462.102 65.8867 462.499 63.53 462.499 61.15C462.499 58.63 462.079 56.2033 461.239 53.87C460.445 51.5367 459.279 49.46 457.739 47.64C456.245 45.7733 454.449 44.3267 452.349 43.3C450.295 42.2267 448.009 41.69 445.489 41.69C442.829 41.69 440.449 42.25 438.349 43.37C436.249 44.4433 434.452 45.9133 432.959 47.78C431.512 49.6467 430.392 51.7467 429.599 54.08C428.805 56.3667 428.409 58.7233 428.409 61.15ZM520.602 86V48.06L504.222 77.25H500.372L483.922 48.06V86H477.622V36.3H484.272L502.262 68.57L520.322 36.3H526.902V86H520.602Z" fill="black"/>
<path d="M272.15 111.58H278.1L284.68 128.87L291.33 111.58H297.28L288.67 133.21L297.21 153.72L314.01 111.3H320.87L300.08 161H294.62L284.75 137.55L274.81 161H269.35L248.63 111.3H255.42L272.29 153.72L280.76 133.21L272.15 111.58ZM337.773 161.7C335.019 161.7 332.499 161.21 330.213 160.23C327.973 159.203 326.013 157.827 324.333 156.1C322.699 154.327 321.416 152.297 320.483 150.01C319.596 147.723 319.153 145.297 319.153 142.73C319.153 139.277 319.946 136.127 321.533 133.28C323.119 130.433 325.313 128.147 328.113 126.42C330.959 124.693 334.203 123.83 337.843 123.83C341.529 123.83 344.726 124.717 347.433 126.49C350.186 128.217 352.309 130.503 353.803 133.35C355.343 136.15 356.113 139.183 356.113 142.45C356.113 142.917 356.089 143.383 356.043 143.85C356.043 144.27 356.019 144.597 355.973 144.83H325.663C325.849 147.21 326.503 149.333 327.623 151.2C328.789 153.02 330.283 154.467 332.103 155.54C333.923 156.567 335.883 157.08 337.983 157.08C340.223 157.08 342.323 156.52 344.283 155.4C346.289 154.28 347.666 152.81 348.413 150.99L353.733 152.46C352.939 154.233 351.749 155.82 350.163 157.22C348.623 158.62 346.779 159.717 344.633 160.51C342.533 161.303 340.246 161.7 337.773 161.7ZM325.453 140.56H350.373C350.186 138.18 349.509 136.08 348.343 134.26C347.176 132.44 345.683 131.017 343.863 129.99C342.043 128.963 340.036 128.45 337.843 128.45C335.696 128.45 333.713 128.963 331.893 129.99C330.073 131.017 328.579 132.44 327.413 134.26C326.293 136.08 325.639 138.18 325.453 140.56ZM360.09 150.43C360.09 148.097 360.744 146.09 362.05 144.41C363.404 142.683 365.247 141.353 367.58 140.42C369.914 139.487 372.62 139.02 375.7 139.02C377.334 139.02 379.06 139.16 380.88 139.44C382.7 139.673 384.31 140.047 385.71 140.56V137.9C385.71 135.1 384.87 132.907 383.19 131.32C381.51 129.687 379.13 128.87 376.05 128.87C374.044 128.87 372.107 129.243 370.24 129.99C368.42 130.69 366.484 131.717 364.43 133.07L362.19 128.73C364.57 127.097 366.95 125.883 369.33 125.09C371.71 124.25 374.184 123.83 376.75 123.83C381.417 123.83 385.104 125.137 387.81 127.75C390.517 130.317 391.87 133.91 391.87 138.53V154C391.87 154.747 392.01 155.307 392.29 155.68C392.617 156.007 393.13 156.193 393.83 156.24V161C393.224 161.093 392.687 161.163 392.22 161.21C391.8 161.257 391.45 161.28 391.17 161.28C389.724 161.28 388.627 160.883 387.88 160.09C387.18 159.297 386.784 158.457 386.69 157.57L386.55 155.26C384.964 157.313 382.887 158.9 380.32 160.02C377.754 161.14 375.21 161.7 372.69 161.7C370.264 161.7 368.094 161.21 366.18 160.23C364.267 159.203 362.774 157.85 361.7 156.17C360.627 154.443 360.09 152.53 360.09 150.43ZM383.89 153.02C384.45 152.367 384.894 151.713 385.22 151.06C385.547 150.36 385.71 149.777 385.71 149.31V144.76C384.264 144.2 382.747 143.78 381.16 143.5C379.574 143.173 378.01 143.01 376.47 143.01C373.344 143.01 370.8 143.64 368.84 144.9C366.927 146.113 365.97 147.793 365.97 149.94C365.97 151.107 366.274 152.25 366.88 153.37C367.534 154.443 368.467 155.33 369.68 156.03C370.94 156.73 372.48 157.08 374.3 157.08C376.214 157.08 378.034 156.707 379.76 155.96C381.487 155.167 382.864 154.187 383.89 153.02ZM401.86 109.9H408.02V151.55C408.02 153.557 408.3 154.793 408.86 155.26C409.42 155.727 410.097 155.96 410.89 155.96C411.87 155.96 412.803 155.867 413.69 155.68C414.577 155.447 415.323 155.213 415.93 154.98L416.91 160.02C415.883 160.44 414.67 160.79 413.27 161.07C411.87 161.35 410.633 161.49 409.56 161.49C407.18 161.49 405.29 160.813 403.89 159.46C402.537 158.107 401.86 156.217 401.86 153.79V109.9ZM440.649 159.18C440.136 159.413 439.436 159.717 438.549 160.09C437.663 160.463 436.636 160.79 435.469 161.07C434.303 161.35 433.066 161.49 431.759 161.49C430.266 161.49 428.889 161.233 427.629 160.72C426.369 160.16 425.366 159.32 424.619 158.2C423.873 157.033 423.499 155.587 423.499 153.86V129.29H418.529V124.46H423.499V112.28H429.659V124.46H437.849V129.29H429.659V151.97C429.753 153.277 430.196 154.257 430.989 154.91C431.783 155.517 432.716 155.82 433.789 155.82C435.003 155.82 436.123 155.61 437.149 155.19C438.176 154.77 438.853 154.467 439.179 154.28L440.649 159.18ZM478.069 161H471.909V140.56C471.909 136.827 471.232 134.027 469.879 132.16C468.572 130.293 466.682 129.36 464.209 129.36C462.622 129.36 461.012 129.78 459.379 130.62C457.792 131.46 456.392 132.603 455.179 134.05C453.965 135.45 453.079 137.083 452.519 138.95V161H446.359V109.9H452.519V132.3C453.965 129.687 455.925 127.633 458.399 126.14C460.919 124.6 463.625 123.83 466.519 123.83C468.712 123.83 470.532 124.227 471.979 125.02C473.472 125.767 474.662 126.84 475.549 128.24C476.435 129.64 477.065 131.273 477.439 133.14C477.859 134.96 478.069 136.967 478.069 139.16V161Z" fill="#5197ED"/>
<g clip-path="url(#clip0_355_262)">
<path fill-rule="evenodd" clip-rule="evenodd" d="M0 173.51V59.1992L17.1675 59.5184V153.376C17.1675 159.332 14.0735 164.861 8.99476 167.983L0 173.51Z" fill="#103E81"/>
<path fill-rule="evenodd" clip-rule="evenodd" d="M50.9976 142.107V86.7539H68.165V123.353C68.165 128.711 65.3294 133.668 60.7094 136.388L50.9976 142.107Z" fill="#103E81"/>
<path fill-rule="evenodd" clip-rule="evenodd" d="M156.918 80.7622C154.633 76.8704 151.22 73.6565 146.485 70.9359C145.067 70.1208 142.134 68.4219 138.208 66.1482C118.589 54.7843 77.7646 31.1378 70.733 27.7635C67.9539 26.4299 64.9152 25.7539 61.7009 25.7539C56.6395 25.7539 51.4781 27.488 47.1681 30.6374L44.6243 32.4955L47.3398 34.0935C48.8414 34.9772 110.339 70.4818 129.477 81.4079C140.559 87.7339 142.653 91.3898 142.653 104.415C142.653 104.891 142.649 105.368 142.645 105.851C142.636 106.742 142.628 107.663 142.646 108.624C142.664 109.596 142.682 110.599 142.673 111.592L142.331 146.603C142.162 163.645 141.994 180.687 141.835 197.729C141.831 198.146 141.833 198.586 141.841 199.075L141.895 202.378L144.847 200.89C150.111 198.238 153.801 194.971 156.129 190.904C158.276 187.153 159.343 182.658 159.491 176.759C160.287 144.823 160.296 94.9799 160.296 94.4805C160.314 89.1542 159.209 84.6642 156.918 80.7622Z" fill="#276FC4"/>
<path fill-rule="evenodd" clip-rule="evenodd" d="M112.294 107.465C110.008 103.574 106.596 100.36 101.861 97.6389C100.443 96.8238 97.5093 95.1251 93.584 92.8513C73.9646 81.4875 33.1403 57.8408 26.1087 54.4665C23.3296 53.1329 20.291 52.457 17.0766 52.457C12.0152 52.457 6.85387 54.1911 2.54382 57.3405L0 59.1987L2.71549 60.7965C4.21714 61.6802 65.7151 97.185 84.8528 108.111C95.9349 114.437 98.0284 118.093 98.0284 131.118C98.0284 131.594 98.0243 132.071 98.0203 132.555C98.0122 133.445 98.0041 134.366 98.0213 135.328C98.0395 136.299 98.0577 137.303 98.0486 138.295L97.7062 173.306C97.5376 190.348 97.3699 207.39 97.2104 224.432C97.2064 224.849 97.2084 225.289 97.2164 225.778L97.271 229.081L100.223 227.593C105.487 224.941 109.177 221.675 111.505 217.607C113.652 213.857 114.719 209.361 114.867 203.462C115.662 171.526 115.671 121.683 115.671 121.184C115.69 115.857 114.585 111.367 112.294 107.465Z" fill="#1C52A0"/>
<path fill-rule="evenodd" clip-rule="evenodd" d="M201.206 55.0093C198.921 51.1175 195.508 47.9036 190.773 45.1829C189.354 44.3668 186.419 42.666 182.489 40.3912C162.872 29.0284 122.052 5.38382 115.021 2.01048C112.242 0.676886 109.203 0 105.989 0C100.928 0 95.7662 1.73509 91.4561 4.88347L88.9133 6.74263L91.6278 8.34053C93.1184 9.21816 154.569 44.6947 173.766 55.654C184.847 61.981 186.941 65.6368 186.941 78.662C186.941 79.1382 186.937 79.6153 186.933 80.0975C186.925 80.9883 186.917 81.9103 186.934 82.8716C186.952 83.8431 186.97 84.8458 186.961 85.8394L186.619 120.85C186.45 137.892 186.282 154.934 186.123 171.976C186.119 172.393 186.121 172.833 186.129 173.322L186.184 176.624L189.136 175.137C194.4 172.484 198.09 169.217 200.417 165.151C202.564 161.399 203.633 156.905 203.779 151.005C204.575 119.07 204.584 69.227 204.584 68.7276C204.602 63.4003 203.497 58.9113 201.206 55.0093Z" fill="#5197ED"/>
</g>
<defs>
<clipPath id="clip0_355_262">
<rect width="205" height="230" fill="white"/>
</clipPath>
</defs>
</svg>